<svg width="36" height="36" viewBox="0 0 36 36" fill="none" xmlns="http://www.w3.org/2000/svg">
<path d="M36 0H0V36H36V0Z" fill="#E50000"/>
<path d="M36 0H0V36H36V0Z" fill="url(#paint0_linear)"/>
<path d="M18.206 24.6L20.7206 10.9182H18.2456L16.3448 22.521L14.147 10.9182H11.375L9.13764 22.521L7.39524 10.9182H4.80144L7.27644 24.6H10.583L12.7214 13.6902L14.8004 24.6H18.206ZM31.1535 12.9972L31.4307 10.9182H21.2733V12.9972H24.9561V24.6H27.5895V12.9972H31.1535Z" fill="white"/>
<path fill-rule="evenodd" clip-rule="evenodd" d="M31.5573 22.4336C31.5293 22.2485 31.4079 22.1188 31.256 22.0168C32.5439 20.9371 33.8119 19.9329 35 19.0975C29.3334 15.1133 22.0071 7.82931 18 2.19514C16.4311 4.40101 14.3469 6.85741 12.0592 9.27215C10.1281 8.23741 5.73133 6.07778 4.22068 6.99782C2.70706 7.91988 5.10272 12.7291 6.26813 14.866C4.45376 16.4696 2.6553 17.9336 1 19.0975C2.15112 19.9069 3.3784 20.8782 4.62483 21.9185C3.99488 22.3778 3.29536 22.9796 3.44527 23.3148C3.70787 23.9019 7.30291 25.1434 7.30291 25.1434C7.30291 25.1434 7.17147 26.9139 7.76233 27.3056C8.14047 27.5561 9.37247 27.2663 10.2142 27.0246C13.2193 30.0208 16.017 33.2119 18 36C19.7715 33.5093 22.2049 30.7021 24.8436 27.9941C27.0874 28.1379 31.4415 28.2878 32.8719 27.4164C34.0496 26.699 31.0328 23.5418 31.0328 23.5418C31.0328 23.5418 31.6487 23.0388 31.5573 22.4336Z" fill="black"/>
<path fill-rule="evenodd" clip-rule="evenodd" d="M31.5573 20.2385C31.5293 20.0533 31.4079 19.9236 31.256 19.8217C32.5439 18.7419 33.8119 17.7377 35 16.9024C29.3334 12.9182 22.0071 5.63416 18 0C16.4311 2.20586 14.3469 4.66227 12.0592 7.077C10.1281 6.04227 5.73133 3.88263 4.22068 4.80268C2.70706 5.72474 5.10272 10.534 6.26813 12.6708C4.45376 14.2745 2.6553 15.7385 1 16.9024C2.15112 17.7117 3.3784 18.6831 4.62483 19.7233C3.99488 20.1826 3.29536 20.7845 3.44527 21.1197C3.70787 21.7068 7.30291 22.9482 7.30291 22.9482C7.30291 22.9482 7.17147 24.7188 7.76233 25.1104C8.14047 25.361 9.37247 25.0712 10.2142 24.8295C13.2193 27.8257 16.017 31.0167 18 33.8049C19.7715 31.3141 22.2049 28.507 24.8436 25.799C27.0874 25.9427 31.4415 26.0926 32.8719 25.2212C34.0496 24.5039 31.0328 21.3466 31.0328 21.3466C31.0328 21.3466 31.6487 20.8437 31.5573 20.2385Z" fill="white"/>
<path fill-rule="evenodd" clip-rule="evenodd" d="M20.6604 6.54912L19.421 12.5922L25.9389 12.7842L25.7695 11.8779C23.9624 10.1701 22.2015 8.33911 20.6604 6.54912ZM22.8048 24.8835C22.9755 24.7031 23.1535 24.5259 23.3269 24.3463L22.143 24.2104L22.8048 24.8835ZM19.9534 5.70223C19.2418 4.84261 18.5692 3.99571 18.0007 3.19652C16.8702 4.78593 15.4031 6.5376 13.7912 8.2819L15.524 9.78101L18.6597 9.81946L19.9534 5.70223ZM30.8895 16.2326L30.2648 16.7491L30.3425 17.981C30.8322 17.6024 31.3195 17.2302 31.7857 16.9025C31.4962 16.699 31.1886 16.4563 30.8895 16.2326ZM14.8882 26.7356L15.1624 24.6817L13.0845 24.7682C13.7079 25.4237 14.3113 26.0802 14.8882 26.7356ZM16.888 23.7696L15.6809 27.6632C16.5369 28.6761 17.3355 29.6734 18.0007 30.6086C19.1349 29.0137 20.608 27.2556 22.2265 25.5054L19.5663 23.7871L16.888 23.7696ZM4.21542 16.9025C5.00432 17.4572 5.83958 18.1119 6.68725 18.804L11.2096 17.9435L7.81127 14.0732C6.57118 15.1389 5.35185 16.1034 4.21542 16.9025Z" fill="#B00000"/>
<path fill-rule="evenodd" clip-rule="evenodd" d="M28.4151 21.2656L29.2956 20.835L29.2858 20.7999L29.9629 20.5496C29.9629 20.5496 29.9788 20.4898 29.9658 20.4427C29.9534 20.3985 29.9118 20.3664 29.9118 20.3664L29.2343 20.6163L29.2245 20.5812L28.8138 20.6863C28.8675 20.1858 28.876 19.2303 28.8726 18.672C28.868 17.8944 28.8559 16.8691 28.8304 16.7041C28.818 16.6235 28.7436 16.5239 28.6719 16.4421C28.907 16.2148 29.1557 15.9666 29.38 15.7122C29.5515 15.701 29.7654 15.6668 29.9658 15.5694C30.3837 15.366 30.3758 15.2228 30.3591 15.1305C30.3488 15.0726 30.0206 15.0621 29.7669 15.0616C29.7811 14.9986 29.8295 14.9235 29.8133 14.8716C29.6941 14.4891 28.6788 14.4226 28.0496 14.4764C28.0534 14.3697 28.0533 14.2623 28.0371 14.2331C28.0018 14.1689 27.417 13.0337 27.0417 12.4152C26.6645 11.7938 25.7768 10.2041 25.6575 10.2686C25.5378 10.3331 26.5438 12.5286 26.9925 13.4966C27.2185 13.9848 27.3974 14.3092 27.52 14.5128C27.2516 14.4512 27.2358 14.1251 25.3878 14.9008C24.2773 15.3672 21.7826 16.412 21.7826 16.412C21.7826 16.412 19.0352 14.21 17.3478 12.8169C15.8256 11.5604 7.56215 5.34906 6.03074 6.67828C4.49192 8.0138 9.40497 13.6397 10.7003 15.1203C12.0558 16.6692 14.99 19.1377 14.99 19.1377C14.99 19.1377 13.8504 19.6559 13.4439 19.8482C13.0357 20.0414 11.7071 20.7976 11.4685 20.7934C11.2294 20.7893 11.1924 20.1656 11.0446 19.7071C10.8966 19.2476 10.6859 19.0053 10.3481 19.0132C10.009 19.0211 9.72257 19.5573 9.51511 19.9435C9.47116 20.0253 9.37814 20.3134 9.37814 20.3134C9.37814 20.3134 8.4876 20.1261 7.94298 20.0119C7.39526 19.8971 6.09033 19.834 6.01173 20.2822C5.93314 20.7302 8.48936 21.8666 8.63738 21.9024C8.78499 21.9382 9.03492 21.9143 9.03492 21.9143C9.03492 21.9143 8.99502 22.1638 8.9841 22.2465C8.92344 22.7045 8.85805 23.0883 9.12592 23.3841C9.39297 23.6794 11.7729 23.0939 11.7729 23.0939C11.7729 23.0939 13.1281 23.5165 13.765 23.3699C14.3978 23.2244 14.0241 22.6933 14.0241 22.6933C14.0241 22.6933 16.33 22.27 17.9612 22.0922C19.5644 21.9175 19.8125 22.2414 20.3059 22.4547C20.7964 22.6665 23.4459 23.3637 25.3098 23.7292C27.1323 24.0866 29.9759 24.4056 30.9451 23.9235C31.7747 23.5106 29.8761 22.1887 28.4151 21.2656ZM25.5541 19.3117C25.5541 19.3117 26.2501 18.9574 27.05 18.2837C27.5015 17.9035 27.7042 17.6261 27.8847 17.3635C27.9069 17.7085 27.9451 18.171 28.0245 18.8094C28.1463 19.7878 28.3628 20.4306 28.533 20.7581L27.8834 20.9243C26.529 20.0606 25.5541 19.3117 25.5541 19.3117ZM22.6935 14.5326C22.6935 14.5326 22.7084 14.4622 22.6894 14.4078C22.6713 14.3569 22.619 14.3212 22.619 14.3212L21.3327 14.8389L21.4082 15.0511L22.6935 14.5326Z" fill="#062536"/>
<defs>
<linearGradient id="paint0_linear" x1="18" y1="0" x2="18" y2="36" gradientUnits="userSpaceOnUse">
<stop stop-color="#485061" stop-opacity="0"/>
<stop offset="1" stop-color="#485061" stop-opacity="0.62"/>
</linearGradient>
</defs>
</svg>
