<svg id="icon-flame" viewBox="0 0 24 24"  xmlns="http://www.w3.org/2000/svg">
<path fill-rule="evenodd" clip-rule="evenodd" d="M12.442 24C3.54442 24 -0.0805576 19.3503 0.908091 13.4433C1.89674 7.5362 5.96107 3.85388 5.96107 3.85388C5.96107 3.85388 4.25406 8.04627 6.83985 7.42113C7.9673 7.14856 8.50813 6.10646 9.149 4.87161C9.31984 4.54242 9.49779 4.19954 9.69586 3.85388C12.3422 -0.764376 15.4079 0.056452 15.4079 0.056452C15.4079 0.056452 13.6455 2.12754 14.2598 5.49614C14.5478 7.07589 15.9571 8.11157 16.5829 8.11157C17.2025 8.11157 17.0106 7.55549 16.7787 6.88352C16.7103 6.68546 16.6385 6.47733 16.5829 6.27041C16.2867 3.85388 18.4836 2.70316 18.4836 2.70316C18.4836 2.70316 18.2489 4.38482 19.8017 6.27041C21.3015 8.09149 22.5479 10.413 23.0971 13.4433C23.9509 18.1538 21.3396 24 12.442 24ZM11.3533 22.5C15.509 22.5 16.3402 21.5556 17.1713 18.25C17.8362 15.6056 14.1238 11.4815 12.1844 9.75C12.7385 11.9537 13.348 16.3611 11.3533 16.3611C9.35851 16.3611 9.13687 14.1574 9.2754 13.0556C7.19755 16.0463 5.70148 22.1222 11.3533 22.5Z" />
</svg>
