<svg width="16" height="22" viewBox="0 0 16 22"
     xmlns="http://www.w3.org/2000/svg">
  <path
    d="M15.2538 1.89456C15.196 1.58963 15.5949 1.46743 15.5701 0.867267C15.5371 -0.511617 13.5908 -0.183517 14.0653 1.40699C14.7834 4.00961 14.2617 5.81839 13.8078 6.7304C13.5822 7.18633 13.1489 6.64246 13.0775 6.30736C12.5301 3.73495 11.5021 3.06196 12.1554 1.29848C12.6699 -0.0886358 10.513 -0.64762 10.6506 1.32463C10.6644 1.75175 11.2046 4.35116 11.1551 5.85224C11.1497 6.0336 10.6902 6.15851 10.4867 6.08161C9.54999 5.72867 8.53713 5.55196 7.60038 5.51212C3.48492 5.51212 0 8.84822 0 12.9574C0 16.0395 1.68175 18.4801 4.18925 19.5074C3.64455 20.2765 3.7545 21.0332 3.27037 22C7.23456 21.995 8.21795 19.1423 10.7914 19.1506C13.1683 19.1479 13.0156 19.1684 15.3951 19.1341C15.8738 19.1259 15.662 18.1737 15.5547 17.9746C12.9208 13.0894 15.9581 9.35636 15.9924 8.0653C16.0487 5.89538 15.7915 4.75684 15.2538 1.89456ZM12.2811 16.9817C10.475 16.6107 7.49175 18.8921 5.6334 18.5541C4.63902 18.3633 3.84261 14.7952 3.18384 13.1814C2.9761 12.6966 2.68716 12.511 2.46164 12.1554C2.25534 11.8285 2.41211 11.4206 2.3571 11.2146C2.03117 9.98956 5.69809 8.08328 8.94427 7.58193L11.7721 7.72345L11.9744 8.52689L12.8533 8.72045L12.6222 10.2793L8.55225 9.69841C7.03779 10.2903 5.97457 10.4207 4.81231 11.492C5.05988 11.871 4.90439 12.3957 5.16038 12.7747C5.24969 12.9081 5.68162 12.9548 5.76961 13.0797C5.61554 13.4725 6.1602 14.4162 6.21389 14.666L6.51792 16.5393C7.91266 16.0476 9.75022 15.1782 10.8423 15.0725C11.6718 15.0877 11.0308 13.717 10.863 12.9574C10.6581 12.0043 9.21242 12.8585 7.97173 13.375L8.58795 14.6881L8.09274 15.4048L7.86722 14.8802L7.53161 15.1632L6.60322 12.6087L7.30735 11.7433L8.10516 11.981C8.95383 11.6116 10.2399 10.6008 11.2426 11.0306C11.4599 11.124 11.4738 11.319 11.5603 11.6637L12.0308 11.8683C12.3045 13.3832 14.3416 17.4046 12.2811 16.9817Z"
    fill="#ffffffaa"/>
</svg>
